<svg width="174" height="175" viewBox="0 0 174 175" fill="none" xmlns="http://www.w3.org/2000/svg">
<g id="undraw_contract_re_ves9 (1) 1" clip-path="url(#clip0_1140_337)">
<path id="Vector" d="M137.526 140.773C137.394 140.873 137.261 140.976 137.132 141.079C135.336 142.47 133.713 143.956 132.28 145.523C132.164 145.643 132.053 145.766 131.95 145.886C128.558 149.672 126.248 153.845 125.139 158.194C124.891 159.178 124.703 160.167 124.578 161.162C124.488 161.929 124.433 162.696 124.415 163.464C124.346 166.69 124.775 170.279 121.659 172.744C120.826 173.392 119.809 173.925 118.667 174.311C117.807 174.608 116.898 174.837 115.958 174.994H106.241C105.752 174.946 105.264 174.894 104.775 174.843C104.762 174.843 104.75 174.84 104.737 174.84L104.638 174.863L104.051 174.994L104.025 175V174.994C104.026 174.983 104.024 174.971 104.021 174.96C104.022 174.939 104.02 174.918 104.017 174.897V174.894C104.012 174.837 104.008 174.783 104.008 174.725L103.995 174.574C103.995 174.574 103.991 174.571 103.995 174.571C103.991 174.485 103.982 174.399 103.978 174.311C103.528 166.847 104.625 159.135 109.906 152.563C111.717 150.312 114.048 148.265 116.815 146.498C116.831 146.487 116.849 146.476 116.867 146.467C122.357 142.972 129.455 140.687 136.948 140.765C137.141 140.765 137.334 140.767 137.526 140.773Z" fill="#F0F0F0"/>
<path id="Vector_2" d="M137.552 140.935C129.066 143.84 122.168 148.455 117.838 154.125C116.874 155.334 116.201 156.638 115.844 157.987C115.561 159.309 115.813 160.657 116.575 161.892C117.251 163.053 118.143 164.188 118.384 165.438C118.493 166.08 118.398 166.729 118.105 167.344C117.811 167.959 117.326 168.525 116.682 169.006C115.122 170.233 112.995 171.013 110.875 171.727C108.521 172.52 106.058 173.318 104.423 174.752C104.225 174.925 103.833 174.71 104.031 174.537C106.874 172.043 111.881 171.499 115.292 169.471C116.883 168.525 118.056 167.253 117.924 165.788C117.808 164.507 116.889 163.336 116.19 162.164C115.42 160.967 115.102 159.662 115.262 158.364C115.514 157.007 116.111 155.688 117.026 154.465C119.021 151.688 121.657 149.138 124.839 146.908C128.45 144.349 132.69 142.222 137.375 140.617C137.665 140.518 137.84 140.836 137.552 140.935Z" fill="white"/>
<path id="Vector_3" d="M119.07 152.244C117.743 151.631 116.786 150.722 116.37 149.681C115.954 148.64 116.107 147.534 116.8 146.561C116.942 146.365 117.406 146.502 117.265 146.699C116.616 147.604 116.474 148.634 116.865 149.603C117.255 150.572 118.151 151.416 119.392 151.982C119.661 152.106 119.338 152.367 119.07 152.244Z" fill="white"/>
<path id="Vector_4" d="M116.116 161.334C119.37 160.96 122.293 159.783 124.303 158.036C124.502 157.862 124.894 158.077 124.695 158.25C122.599 160.066 119.553 161.287 116.166 161.671C115.843 161.707 115.795 161.37 116.116 161.334Z" fill="white"/>
<path id="Vector_5" d="M128.716 144.762C129.156 145.071 129.703 145.302 130.31 145.435C130.916 145.568 131.562 145.598 132.191 145.523C132.513 145.484 132.56 145.821 132.241 145.86C131.546 145.941 130.832 145.907 130.162 145.761C129.491 145.615 128.884 145.362 128.394 145.024C128.344 144.995 128.313 144.954 128.306 144.909C128.299 144.865 128.318 144.821 128.359 144.786C128.402 144.751 128.464 144.729 128.53 144.725C128.597 144.72 128.664 144.734 128.716 144.762Z" fill="white"/>
<path id="Vector_6" d="M161.191 161.465C160.994 161.494 160.796 161.523 160.595 161.554H160.591C157.905 161.944 155.27 162.477 152.713 163.15C152.515 163.201 152.318 163.253 152.121 163.307H152.117C146.021 164.963 140.435 167.356 135.641 170.365C135.623 170.376 135.606 170.385 135.589 170.396C135.579 170.404 135.567 170.412 135.555 170.419L135.533 170.433C133.631 171.636 131.867 172.932 130.257 174.311C130.257 174.314 130.253 174.317 130.248 174.319C129.991 174.543 129.73 174.766 129.473 174.994H104.051L104.025 175V174.994H103.918C103.918 174.991 103.922 174.989 103.927 174.986C103.927 174.983 103.931 174.983 103.931 174.98C103.961 174.951 103.991 174.923 104.017 174.897V174.894C104.023 174.886 104.032 174.878 104.042 174.871C104.068 174.843 104.098 174.82 104.119 174.794C104.291 174.634 104.458 174.471 104.629 174.311C104.908 174.045 105.191 173.779 105.478 173.516L105.478 173.515L105.479 173.514L105.481 173.513L105.482 173.513V173.51C105.487 173.507 105.487 173.504 105.491 173.502L105.5 173.496C109.036 170.23 113.013 167.13 117.57 164.534C117.707 164.454 117.844 164.374 117.99 164.299C120.053 163.135 122.256 162.086 124.578 161.162C125.846 160.662 127.154 160.202 128.5 159.784C131.971 158.717 135.672 158.02 139.468 157.719H139.477C139.485 157.719 139.494 157.717 139.507 157.717C139.52 157.717 139.528 157.714 139.537 157.714C147.085 157.13 154.821 158.157 160.741 161.228C160.895 161.308 161.041 161.385 161.191 161.465Z" fill="#F0F0F0"/>
<path id="Vector_7" d="M103.92 174.994H104.027V175L104.053 174.994H110.855C108.828 174.763 106.805 174.582 104.777 174.843C104.73 174.848 104.687 174.854 104.64 174.863C104.434 174.888 104.228 174.923 104.023 174.96C104.01 174.963 103.993 174.966 103.98 174.968C103.961 174.972 103.944 174.978 103.928 174.986C103.917 174.987 103.907 174.99 103.898 174.994H103.92Z" fill="white"/>
<path id="Vector_8" d="M161.07 161.606C160.911 161.588 160.757 161.568 160.598 161.554H160.594C157.287 161.194 153.93 161.081 150.586 161.217C150.418 161.222 150.247 161.231 150.076 161.237C145.433 161.453 140.869 162.146 136.544 163.293C136.54 163.293 136.54 163.293 136.54 163.296C136.492 163.307 136.445 163.318 136.402 163.33C135.395 163.602 134.401 163.899 133.428 164.219C131.566 164.798 129.852 165.568 128.349 166.501C127.145 167.294 126.234 168.262 125.687 169.329C125.631 169.438 125.575 169.544 125.524 169.653C125.485 169.738 125.447 169.827 125.408 169.913C124.902 171.111 124.59 172.375 123.655 173.47C123.395 173.776 123.078 174.058 122.712 174.311C122.334 174.573 121.908 174.803 121.443 174.994H120.363C120.954 174.824 121.502 174.593 121.988 174.311C122.365 174.094 122.696 173.842 122.969 173.564C124.032 172.495 124.358 171.191 124.855 169.976C124.937 169.778 125.022 169.587 125.117 169.395C125.612 168.347 126.441 167.382 127.547 166.567C128.973 165.585 130.638 164.772 132.472 164.162C133.629 163.756 134.818 163.388 136.038 163.058C136.197 163.013 136.355 162.972 136.514 162.932C144.218 160.932 152.584 160.344 160.744 161.228C160.903 161.242 161.057 161.262 161.216 161.28C161.537 161.317 161.391 161.643 161.07 161.606Z" fill="white"/>
<path id="Vector_9" d="M136.108 163.212C135.602 162.189 135.658 161.079 136.266 160.081C136.873 159.082 137.993 158.261 139.425 157.762C139.715 157.662 139.962 157.958 139.671 158.059C138.337 158.521 137.294 159.287 136.731 160.217C136.168 161.147 136.122 162.181 136.602 163.132C136.705 163.339 136.211 163.417 136.108 163.212Z" fill="white"/>
<path id="Vector_10" d="M125.546 169.282C128.481 170.291 131.878 170.525 135.059 169.937C135.374 169.879 135.493 170.208 135.179 170.266C131.866 170.874 128.332 170.626 125.282 169.571C124.991 169.471 125.257 169.182 125.546 169.282Z" fill="white"/>
<path id="Vector_11" d="M150.562 161.112C150.634 161.535 150.862 161.939 151.226 162.289C151.591 162.638 152.079 162.922 152.649 163.115C152.941 163.213 152.675 163.502 152.384 163.404C151.757 163.189 151.218 162.876 150.814 162.49C150.41 162.104 150.154 161.658 150.068 161.191C150.054 161.148 150.066 161.102 150.101 161.064C150.136 161.026 150.191 160.999 150.255 160.987C150.32 160.976 150.389 160.984 150.447 161.007C150.504 161.03 150.545 161.068 150.562 161.112Z" fill="white"/>
<path id="Vector_12" d="M135.905 47.5526C136.02 38.0844 136.598 28.5247 137.636 18.8735C137.654 18.6819 137.675 18.4931 137.696 18.3015C138.245 13.2772 138.917 8.23475 139.711 3.17418V3.14558C139.71 2.31147 139.213 1.51167 138.329 0.92187C137.445 0.332068 136.246 0.000497743 134.996 0H8.55175C7.30574 0.0016333 6.11115 0.331606 5.22809 0.918074C4.34502 1.50454 3.845 2.30001 3.83687 3.13128C2.73959 10.1002 1.87948 17.0347 1.25654 23.935C1.23083 24.1609 1.21369 24.384 1.19654 24.6099C0.887933 28.0214 0.642188 31.4243 0.459308 34.8187C0.446449 35.0189 0.433587 35.2191 0.429301 35.4192C-0.740923 56.2458 0.398042 77.1015 3.83687 97.8161C3.84589 98.6469 4.34633 99.4417 5.22933 100.028C6.11232 100.613 7.30641 100.943 8.55175 100.944H134.996C136.246 100.944 137.445 100.612 138.329 100.023C139.213 99.4328 139.71 98.633 139.711 97.7989V97.7675C139.089 94.0871 138.544 90.383 138.074 86.655C138.005 86.1088 137.938 85.5626 137.872 85.0164C137.546 82.3312 137.262 79.6356 137.019 76.9294C136.968 76.3832 136.921 75.8371 136.878 75.2909C136.419 69.8747 136.119 64.4167 135.978 58.9167C135.96 58.3705 135.948 57.8272 135.935 57.2781C135.883 54.593 135.868 51.8973 135.888 49.1911C135.888 48.6449 135.892 48.0988 135.905 47.5526Z" fill="#F0F0F0"/>
<path id="Vector_13" d="M174 21.4471C173.999 20.613 173.502 19.8132 172.618 19.2234C171.734 18.6336 170.535 18.302 169.285 18.3015H42.8406C41.5946 18.3031 40.4 18.6331 39.5169 19.2196C38.6339 19.8061 38.1338 20.6015 38.1257 21.4328C33.8566 48.5906 33.1494 75.2679 36.0083 100.944C36.3555 104.121 36.7613 107.282 37.2256 110.427C37.4742 112.111 37.7385 113.791 38.0186 115.466C38.0528 115.683 38.0871 115.9 38.1257 116.118C38.1347 116.948 38.6352 117.743 39.5182 118.329C40.4012 118.915 41.5952 119.245 42.8406 119.246H169.285C170.535 119.246 171.734 118.914 172.618 118.324C173.502 117.734 173.999 116.935 174 116.1V116.069C168.886 85.8228 168.886 53.9981 174 21.4757V21.4471Z" fill="white"/>
<path id="Vector_14" d="M174 21.4471C173.999 20.613 173.502 19.8132 172.618 19.2234C171.734 18.6336 170.535 18.302 169.285 18.3015H42.8406C41.5946 18.3031 40.4 18.6331 39.5169 19.2196C38.6339 19.8061 38.1338 20.6015 38.1257 21.4328C33.8566 48.5906 33.1494 75.2679 36.0083 100.944C36.3555 104.121 36.7613 107.282 37.2256 110.427C37.4742 112.111 37.7385 113.791 38.0186 115.466C38.0528 115.683 38.0871 115.9 38.1257 116.118C38.1347 116.948 38.6352 117.743 39.5182 118.329C40.4012 118.915 41.5952 119.245 42.8406 119.246H169.285C170.535 119.246 171.734 118.914 172.618 118.324C173.502 117.734 173.999 116.935 174 116.1V116.069C168.886 85.8228 168.886 53.9981 174 21.4757V21.4471ZM173.143 116.118C173.135 116.797 172.725 117.447 172.003 117.926C171.28 118.405 170.303 118.674 169.285 118.674H42.8406C41.8179 118.673 40.8376 118.402 40.1145 117.919C39.3914 117.437 38.9845 116.783 38.983 116.1V116.069C38.953 115.886 38.9229 115.7 38.8929 115.517C38.5972 113.767 38.3214 112.012 38.0657 110.253C37.6156 107.167 37.217 104.064 36.8698 100.944C34.0109 75.2822 34.7139 48.622 38.983 21.4757V21.4471C38.9845 20.7648 39.3914 20.1108 40.1145 19.6284C40.8376 19.1459 41.818 18.8745 42.8406 18.8734H169.285C170.304 18.8737 171.282 19.1429 172.005 19.6224C172.727 20.102 173.137 20.7528 173.143 21.4328C168.029 53.981 168.029 85.84 173.143 116.118Z" fill="#E4E4E4"/>
<path id="Path 142" d="M51.5574 47.5527C51.2321 47.5533 50.9204 47.6399 50.6907 47.7936C50.461 47.9472 50.332 48.1554 50.332 48.3724C50.332 48.5894 50.461 48.7976 50.6907 48.9512C50.9204 49.1049 51.2321 49.1915 51.5574 49.1921H154.312C154.637 49.1915 154.949 49.1049 155.179 48.9512C155.408 48.7976 155.537 48.5894 155.537 48.3724C155.537 48.1554 155.408 47.9472 155.179 47.7936C154.949 47.6399 154.637 47.5533 154.312 47.5527H51.5574Z" fill="#E6E6E6"/>
<path id="Path 143" d="M51.5583 52.4712C51.2329 52.4716 50.921 52.5581 50.6911 52.7118C50.4612 52.8655 50.332 53.0737 50.332 53.2909C50.332 53.508 50.4612 53.7162 50.6911 53.8699C50.921 54.0236 51.2329 54.1101 51.5583 54.1105H121.315C121.64 54.1101 121.952 54.0236 122.182 53.8699C122.412 53.7162 122.541 53.508 122.541 53.2909C122.541 53.0737 122.412 52.8655 122.182 52.7118C121.952 52.5581 121.64 52.4716 121.315 52.4712H51.5583Z" fill="#E6E6E6"/>
<path id="Path 142_2" d="M51.5583 57.2783C51.2329 57.2787 50.921 57.3653 50.6911 57.5189C50.4612 57.6726 50.332 57.8809 50.332 58.098C50.332 58.3151 50.4612 58.5234 50.6911 58.677C50.921 58.8307 51.2329 58.9172 51.5583 58.9176H154.313C154.639 58.9172 154.95 58.8307 155.18 58.677C155.41 58.5234 155.539 58.3151 155.539 58.098C155.539 57.8809 155.41 57.6726 155.18 57.5189C154.95 57.3653 154.639 57.2787 154.313 57.2783H51.5583Z" fill="#E6E6E6"/>
<path id="Path 143_2" d="M51.5574 62.1968C51.2321 62.1974 50.9204 62.284 50.6907 62.4376C50.461 62.5913 50.332 62.7994 50.332 63.0164C50.332 63.2335 50.461 63.4416 50.6907 63.5953C50.9204 63.7489 51.2321 63.8355 51.5574 63.8361H121.314C121.639 63.8355 121.951 63.7489 122.18 63.5953C122.41 63.4416 122.539 63.2335 122.539 63.0164C122.539 62.7994 122.41 62.5913 122.18 62.4376C121.951 62.284 121.639 62.1974 121.314 62.1968H51.5574Z" fill="#E6E6E6"/>
<path id="Path 142_3" d="M51.5574 75.291C51.2321 75.2916 50.9204 75.3782 50.6907 75.5319C50.461 75.6855 50.332 75.8937 50.332 76.1107C50.332 76.3277 50.461 76.5358 50.6907 76.6895C50.9204 76.8432 51.2321 76.9298 51.5574 76.9303H154.312C154.637 76.9298 154.949 76.8432 155.179 76.6895C155.408 76.5358 155.537 76.3277 155.537 76.1107C155.537 75.8937 155.408 75.6855 155.179 75.5319C154.949 75.3782 154.637 75.2916 154.312 75.291H51.5574Z" fill="#E6E6E6"/>
<path id="Path 143_3" d="M51.5583 80.2095C51.2329 80.2099 50.921 80.2964 50.6911 80.4501C50.4612 80.6038 50.332 80.812 50.332 81.0291C50.332 81.2463 50.4612 81.4545 50.6911 81.6082C50.921 81.7619 51.2329 81.8484 51.5583 81.8488H121.315C121.64 81.8484 121.952 81.7619 122.182 81.6082C122.412 81.4545 122.541 81.2463 122.541 81.0291C122.541 80.812 122.412 80.6038 122.182 80.4501C121.952 80.2964 121.64 80.2099 121.315 80.2095H51.5583Z" fill="#E6E6E6"/>
<path id="Path 142_4" d="M51.5583 85.0166C51.2329 85.017 50.921 85.1035 50.6911 85.2572C50.4612 85.4109 50.332 85.6191 50.332 85.8363C50.332 86.0534 50.4612 86.2616 50.6911 86.4153C50.921 86.569 51.2329 86.6555 51.5583 86.6559H154.313C154.639 86.6555 154.95 86.569 155.18 86.4153C155.41 86.2616 155.539 86.0534 155.539 85.8363C155.539 85.6191 155.41 85.4109 155.18 85.2572C154.95 85.1035 154.639 85.017 154.313 85.0166H51.5583Z" fill="#E6E6E6"/>
<path id="Path 143_4" d="M51.5574 89.9351C51.2321 89.9356 50.9204 90.0222 50.6907 90.1759C50.461 90.3295 50.332 90.5377 50.332 90.7547C50.332 90.9717 50.461 91.1799 50.6907 91.3335C50.9204 91.4872 51.2321 91.5738 51.5574 91.5744H121.314C121.639 91.5738 121.951 91.4872 122.18 91.3335C122.41 91.1799 122.539 90.9717 122.539 90.7547C122.539 90.5377 122.41 90.3295 122.18 90.1759C121.951 90.0222 121.639 89.9356 121.314 89.9351H51.5574Z" fill="#E6E6E6"/>
<path id="Path 154" d="M71.8894 37.3752H52.2635C52.0093 37.375 51.7656 37.3076 51.5858 37.1877C51.4061 37.0677 51.305 36.9052 51.3047 36.7356V34.6377C51.305 34.4681 51.4061 34.3055 51.5858 34.1856C51.7656 34.0657 52.0093 33.9982 52.2635 33.998H71.8894C72.1436 33.9982 72.3872 34.0657 72.567 34.1856C72.7467 34.3055 72.8478 34.4681 72.8481 34.6377V36.7356C72.8478 36.9052 72.7467 37.0677 72.567 37.1877C72.3872 37.3076 72.1436 37.375 71.8894 37.3752Z" fill="#EC2227"/>
<path id="Vector_15" d="M140.07 104.855L134.059 106.181C133.057 106.402 132.055 106.623 131.053 106.843C130.125 107.047 129.121 107.29 128.127 107.202C127.441 107.141 126.658 106.878 126.444 106.407C126.242 105.961 126.671 105.494 127.191 105.231C128.625 104.502 130.439 105.244 131.456 105.997C132.699 106.92 133.403 108.11 134.569 109.076C135.607 109.941 136.923 110.641 138.42 111.122C141.395 112.059 145.024 111.96 147.678 110.594C150.846 108.963 151.17 106.137 151.186 103.671C151.181 103.559 151.11 103.454 150.99 103.377C150.87 103.3 150.71 103.256 150.543 103.256C150.377 103.256 150.216 103.3 150.096 103.377C149.977 103.454 149.906 103.559 149.9 103.671C149.885 105.906 149.695 108.645 146.64 110.044C143.715 111.383 139.869 111.028 137.176 109.601C135.675 108.805 134.751 107.768 133.766 106.694C132.804 105.646 131.609 104.629 129.799 104.222C129.022 104.034 128.172 104.03 127.392 104.212C126.612 104.393 125.95 104.749 125.518 105.219C125.321 105.44 125.197 105.688 125.154 105.944C125.111 106.2 125.15 106.459 125.269 106.705C125.388 106.95 125.584 107.176 125.844 107.366C126.104 107.557 126.421 107.709 126.776 107.811C128.875 108.479 131.277 107.697 133.298 107.251L140.412 105.683C141.194 105.51 140.859 104.681 140.07 104.855Z" fill="#EC2227"/>
<path id="Vector_16" d="M122.254 167.91L118.039 168.836L110.676 158.43L116.897 157.063L122.254 167.91Z" fill="#9F616A"/>
<path id="Vector_17" d="M125.261 170.273L124.973 169.693L124.219 168.163L123.705 167.122L122.299 167.431L122.007 167.416L118.145 167.242L117.631 167.219L116.868 167.185L116.079 167.148L113.876 169.284H113.872C113.048 169.463 112.286 169.749 111.63 170.126C110.974 170.503 110.436 170.963 110.049 171.48C110.002 171.543 109.959 171.606 109.916 171.669C109.809 171.822 109.719 171.981 109.646 172.143C109.312 172.844 109.25 173.59 109.466 174.311C109.521 174.49 109.591 174.666 109.676 174.84L109.689 174.869L109.74 174.974L110.049 174.906L112.758 174.311L122.247 172.226L124.129 171.812L124.708 171.683H124.712L125.835 171.437L125.261 170.273Z" fill="#2F2E41"/>
<path id="Vector_18" d="M82.2994 170.356L77.8614 170.356L75.75 158.935L82.3002 158.936L82.2994 170.356Z" fill="#9F616A"/>
<path id="Vector_19" d="M75.1935 120.291L73.2261 122.561C73.2261 122.561 71.0643 122.955 71.7708 127.657C72.2697 130.976 72.4315 145.841 73.6876 155.497C74.2103 159.516 74.9226 162.633 75.9277 163.641L76.5464 164.011L83.0045 164.422L83.1673 164.384L85.5388 153.21C85.9645 151.204 85.9007 149.165 85.35 147.173L84.9214 144.027L90.8677 128.1C90.8677 128.1 96.9229 138.308 100.781 148.031C101.709 150.371 105.236 151.86 106.574 153.868C107.022 154.541 107.462 155.193 107.892 155.819C110.72 159.938 112.138 162.938 113.211 163.187H114.068L119.211 162.043L120.223 160.346L112.353 144.885L106.46 119.922C95.2314 115.894 84.6982 115.446 75.1935 120.291Z" fill="#2F2E41"/>
<path id="Vector_20" d="M107.361 86.655C106.973 86.0854 106.517 85.5374 105.998 85.0165C104.81 83.7817 103.16 82.7753 101.21 82.0968L99.5214 81.848L96.4953 81.4019L94.9009 80.2095L92.2862 78.2563H83.2851L82.0807 80.2095L81.0691 81.848L80.6362 82.5458L72.9295 85.1166C72.9252 85.1166 72.9252 85.1166 72.921 85.1194C73.0238 85.6342 73.1253 86.146 73.2253 86.655C73.4439 87.7617 73.6496 88.855 73.8425 89.935C73.9411 90.4841 74.0354 91.0303 74.1254 91.5736C74.4126 93.2779 74.6597 94.9527 74.8669 96.5979C75.0512 98.0678 75.1984 99.5166 75.3084 100.945C75.5764 104.187 75.5965 107.437 75.3684 110.682C75.3084 111.445 76.4443 112.314 76.3542 113.061C76.2042 114.279 74.794 115.36 74.5454 116.524C74.3911 117.239 74.4597 117.999 74.1897 118.674C74.1146 118.872 74.0023 119.062 73.8554 119.24C73.8554 119.243 73.8511 119.243 73.8511 119.246C70.765 122.924 73.1867 121.168 72.8995 121.994L73.0367 122.017C73.101 122.029 73.2981 122.063 73.6153 122.111C75.4284 122.4 82.9036 117.719 87.9228 117.719C90.9361 117.719 98.9128 121.025 101.583 121.265C103.696 121.454 105.582 121.625 106.705 120.965C107.031 120.772 107.28 120.528 107.43 120.256L107.442 120.23L107.438 120.204L107.331 119.246L107.267 118.674L106.349 110.467C105.837 110.043 105.513 109.532 105.415 108.992C105.316 108.451 105.447 107.903 105.792 107.41L105.981 107.144L105.286 100.945L105.158 99.7864L105.111 99.3946V99.3918L104.776 96.3977L105.582 94.762V94.7592L107.151 91.5736L107.957 89.935L108.463 88.9056L108.497 88.8369C108.227 88.0864 107.846 87.3556 107.361 86.655Z" fill="#EC2227"/>
<path id="Vector_21" d="M115.182 116.226L106.541 101.327L102.527 95.8866L110.245 93.0422L116.46 100.348L120.627 115.613C121.282 115.912 121.789 116.335 122.082 116.827C122.375 117.32 122.441 117.859 122.271 118.377C122.101 118.894 121.703 119.366 121.128 119.731C120.553 120.097 119.827 120.339 119.044 120.427C118.261 120.515 117.456 120.445 116.733 120.226C116.01 120.007 115.402 119.648 114.987 119.196C114.572 118.745 114.369 118.221 114.403 117.691C114.438 117.162 114.709 116.652 115.182 116.226Z" fill="#9F616A"/>
<path id="Vector_22" d="M115.354 95.7L113.143 94.7449L110.601 91.5736L109.289 89.935L108.462 88.9056L108.111 88.4652L104.137 86.6551L101.454 85.4312L99.2681 86.6551L98.2266 87.2384L99.2467 89.935L99.8639 91.5736L101.21 95.1281L105.157 99.7864L106.139 100.945L106.7 101.611L106.705 101.617L106.782 101.705L116.756 101.428L117.069 101.419L117.086 100.945L117.095 100.773C117.099 100.687 117.099 100.601 117.099 100.516C117.098 98.8409 116.5 97.1903 115.354 95.7Z" fill="#EC2227"/>
<path id="Vector_23" d="M39.8621 110.301L57.539 99.5243L63.6825 95.0557L70.4548 98.822L62.5041 105.336L42.6931 113.464C42.5138 113.98 42.1072 114.448 41.5257 114.809C40.9442 115.17 40.2143 115.407 39.4297 115.489C38.6452 115.57 37.8419 115.494 37.1229 115.269C36.404 115.044 35.8023 114.681 35.3952 114.226C34.9881 113.771 34.7941 113.245 34.8382 112.716C34.8823 112.187 35.1624 111.679 35.6426 111.257C36.1228 110.835 36.7811 110.519 37.533 110.348C38.2849 110.178 39.096 110.161 39.8621 110.301Z" fill="#9F616A"/>
<path id="Vector_24" d="M76.3544 91.5735L76.3201 89.935L76.2558 86.655L76.2301 85.3824L76.1572 85.3481C75.758 85.1734 75.3056 85.0601 74.8328 85.0164C74.417 84.9704 73.9927 84.9704 73.5769 85.0164C73.3577 85.0391 73.1414 85.0725 72.9297 85.1165C72.9254 85.1165 72.9254 85.1165 72.9211 85.1194C71.6505 85.4237 70.5286 85.9537 69.6764 86.6521L69.6721 86.655C68.3868 87.6751 67.2474 88.7732 66.2688 89.935C65.7845 90.484 65.3216 91.0388 64.8887 91.5735C63.2513 93.6067 62.0726 95.3682 62.0512 95.3997L57.1562 99.6405L57.2248 99.7177L58.3007 100.944L62.2441 105.443L62.8698 106.158L64.4686 105.589C66.3323 104.925 67.8017 103.858 68.6349 102.563L69.2049 101.11L69.415 100.944L74.8671 96.5979L76.4273 95.3511L76.3544 91.5735Z" fill="#EC2227"/>
<path id="Vector_25" d="M95.0371 72.66C95.7671 69.659 92.7123 66.8313 88.214 66.3443C83.7158 65.8573 79.4775 67.8954 78.7475 70.8964C78.0175 73.8975 81.0723 76.7251 85.5706 77.2121C90.0688 77.6991 94.3071 75.6611 95.0371 72.66Z" fill="#9F616A"/>
<path id="Vector_26" d="M78.9154 68.1693C78.5487 67.313 77.8153 66.579 78.182 66.579C78.5487 66.579 78.7321 65.9673 78.7321 65.9673C78.7321 65.9673 79.0988 65.845 79.2822 65.9673C79.4655 66.0897 79.6489 65.111 79.6489 65.111C79.6489 65.111 79.8322 64.744 80.0156 64.9887C80.1989 65.2333 80.199 65.111 80.3823 64.744C80.5657 64.377 81.4826 64.1323 81.4826 64.1323C81.4826 64.1323 84.9664 64.2547 85.5165 63.7653C86.0666 63.276 92.301 63.643 93.5845 64.2547C94.8681 64.8663 99.925 65.9598 96.9246 69.3914C98.6391 71.3931 96.0795 74.9633 95.4181 75.387C94.3723 76.0568 93.6483 76.2983 88.6998 76.9552C87.7313 77.0838 85.3518 71.6791 85.3518 71.6791C85.3518 71.6791 79.2822 69.0256 78.9154 68.1693Z" fill="#2F2E41"/>
<path id="Vector_27" d="M82.5664 169.91L82.3006 169.838L77.5257 168.54L76.7928 168.343L73.6981 169.91H73.6938C71.9453 169.911 70.2691 170.375 69.0331 171.201C67.7972 172.026 67.1025 173.144 67.1016 174.311V174.454H84.0451V169.91H82.5664Z" fill="#2F2E41"/>
<path id="Vector_28" d="M132.369 174.651C132.369 174.696 132.356 174.74 132.331 174.782C132.305 174.823 132.268 174.861 132.22 174.893C132.173 174.925 132.117 174.95 132.055 174.968C131.992 174.985 131.926 174.994 131.859 174.994H44.7192C44.5834 174.994 44.4531 174.958 44.3571 174.894C44.261 174.83 44.207 174.743 44.207 174.652C44.207 174.562 44.261 174.475 44.3571 174.411C44.4531 174.347 44.5834 174.311 44.7192 174.311H131.859C131.994 174.311 132.123 174.347 132.219 174.411C132.315 174.474 132.368 174.561 132.369 174.651Z" fill="#CCCCCC"/>
<path id="Vector_29" d="M42.4049 0C41.7305 7.99749 37.3242 15.6541 29.8027 21.8976C22.2813 28.1411 12.0214 32.659 0.459694 34.8187C0.446836 35.0189 0.433974 35.2191 0.429688 35.4192C12.2309 33.2533 22.7143 28.6691 30.3997 22.3138C38.0851 15.9585 42.5844 8.15325 43.2622 0H42.4049Z" fill="white"/>
<path id="Vector_30" d="M29.2745 0C27.2826 5.04915 23.7713 9.77501 18.9543 13.8899C14.1373 18.0047 8.11542 21.4224 1.25531 23.935C1.2296 24.1609 1.21246 24.384 1.19531 24.6099C8.30492 22.061 14.548 18.5592 19.5328 14.3242C24.5175 10.0891 28.1362 5.21238 30.1618 0H29.2745Z" fill="white"/>
</g>
<defs>
<clipPath id="clip0_1140_337">
<rect width="174" height="175" fill="white"/>
</clipPath>
</defs>
</svg>
