<svg width="140" height="162" viewBox="0 0 140 162" fill="none" xmlns="http://www.w3.org/2000/svg">
<g id="undraw_development_re_g5hq (1) 1" clip-path="url(#clip0_1140_377)">
<path id="Vector" d="M19.0469 129.519H124.337V2.07666H19.0469V129.519Z" fill="white"/>
<path id="Vector_2" d="M125.207 131.596H18.1797V0H125.207V131.596ZM19.9168 127.443H123.47V4.15328H19.9168V127.443Z" fill="#E5E5E5"/>
<path id="Vector_3" d="M68.1897 29.0378V72.2933H41.8905L37.0319 86.2313L37.5867 72.2933H35.2227V29.0378H68.1897Z" fill="#EC2227"/>
<path id="Vector_4" d="M84.1055 31.6042V59.338H100.967L104.082 68.2741L103.727 59.338H105.242V31.6042H84.1055Z" fill="#F0F0F0"/>
<path id="Vector_5" d="M14.5158 157.909H16.0371L16.7608 143.88H14.5156L14.5158 157.909Z" fill="#FFB7B7"/>
<path id="Vector_6" d="M14.1289 156.722L17.1249 156.722C17.6312 156.722 18.1169 157.203 18.475 158.059C18.833 158.915 19.0342 160.076 19.0342 161.286V161.435L14.129 161.435L14.1289 156.722Z" fill="#2F2E41"/>
<path id="Vector_7" d="M32.7929 157.79L34.2702 156.921L33.5708 142.884L31.3906 144.167L32.7929 157.79Z" fill="#FFB7B7"/>
<path id="Vector_8" d="M32.2969 156.858L35.206 155.147C35.6977 154.857 36.2174 155.047 36.6506 155.674C37.0839 156.3 37.3952 157.313 37.5163 158.488L37.5311 158.632L32.768 161.435L32.2969 156.858Z" fill="#2F2E41"/>
<path id="Vector_9" d="M13.5781 154.564L13.8941 150.699C13.8941 150.699 14.4759 135.772 18.6506 120.875L20.0095 104.693C20.0095 104.693 19.606 92.4437 23.5011 85.8133L24.7019 83.8354L28.9122 84.4124L29.8846 97.141L31.8439 127.258C31.8439 127.258 32.3496 127.372 32.5392 130.854C32.9246 132.317 33.1526 133.985 33.2028 135.709C33.2028 135.709 34.2055 142.323 34.4742 147.192L34.4426 151.957L32.3252 154.654L27.9122 124.815L24.7558 108.133C24.7558 108.133 23.2367 119.886 20.9097 129.955C20.9097 129.955 17.7226 146.449 17.0859 149.8L16.3907 155.284L13.5781 154.564Z" fill="#2F2E41"/>
<path id="Vector_10" d="M27.6578 58.2226C29.3198 58.2226 30.6672 55.0012 30.6672 51.0274C30.6672 47.0537 29.3198 43.8323 27.6578 43.8323C25.9958 43.8323 24.6484 47.0537 24.6484 51.0274C24.6484 55.0012 25.9958 58.2226 27.6578 58.2226Z" fill="#FFB7B7"/>
<path id="Vector_11" d="M27.6578 58.2226C29.3198 58.2226 30.6672 55.0012 30.6672 51.0274C30.6672 47.0537 29.3198 43.8323 27.6578 43.8323C25.9958 43.8323 24.6484 47.0537 24.6484 51.0274C24.6484 55.0012 25.9958 58.2226 27.6578 58.2226Z" fill="#FFB8B8"/>
<path id="Vector_12" d="M23.5117 85.89L24.5052 79.957C23.8033 74.5213 23.8463 68.6916 24.6279 63.3186L24.818 62.9443C26.4738 59.6841 27.9271 60.2776 29.2757 64.2658C29.4929 64.9141 29.7469 65.4867 30.0304 65.967C30.6251 66.9647 31.5688 72.3855 30.3228 75.563L29.3261 89.4647C29.4311 97.14 27.1016 94.2499 23.5117 85.89Z" fill="#3F3D56"/>
<path id="Vector_13" d="M37.7568 77.8205C37.6283 77.5882 37.4801 77.4261 37.3226 77.3456C37.1651 77.2651 37.0021 77.2681 36.8451 77.3544C36.6882 77.4408 36.541 77.6084 36.4141 77.8455C36.2871 78.0825 36.1835 78.3832 36.1104 78.7264L33.6002 78.2591L33.1094 81.8371L36.6581 82.3779C36.9074 82.6332 37.1872 82.6611 37.4445 82.4561C37.7018 82.2512 37.9187 81.8277 38.0541 81.266C38.1895 80.7042 38.2341 80.0432 38.1793 79.4082C38.1245 78.7732 37.9742 78.2083 37.7568 77.8205Z" fill="#FFB7B7"/>
<path id="Vector_14" d="M35.3511 83.6246L28.1984 80.4314L25.872 71.1058C25.7225 70.1149 25.7438 69.0226 25.9311 68.0692C26.1185 67.1158 26.4566 66.3794 26.8711 66.022C27.2855 65.6646 27.7424 65.7155 28.1412 66.1634C28.5399 66.6114 28.8479 67.4198 28.9974 68.4107L30.0886 75.6252L35.7454 77.8639L35.3511 83.6246Z" fill="#CCCCCC"/>
<path id="Vector_15" d="M22.2934 49.4517C23.8879 49.4517 25.1805 46.3612 25.1805 42.5489C25.1805 38.7365 23.8879 35.646 22.2934 35.646C20.6989 35.646 19.4062 38.7365 19.4062 42.5489C19.4062 46.3612 20.6989 49.4517 22.2934 49.4517Z" fill="#2F2E41"/>
<path id="Vector_16" d="M19.8013 48.2647C20.175 48.9105 20.6079 49.3328 21.0639 49.4965C21.5199 49.6602 21.9856 49.5605 22.4221 49.2056C22.8586 48.8507 23.2533 48.251 23.573 47.4568C23.8927 46.6625 24.1282 45.6967 24.2598 44.6401C24.21 45.587 24.0786 46.4988 23.874 47.3181C23.6694 48.1374 23.3959 48.8464 23.0709 49.4003C22.7459 49.9541 22.3764 50.3409 21.9857 50.5361C21.595 50.7313 21.1917 50.7307 20.8011 50.5344C20.4105 50.3381 20.0412 49.9503 19.7165 49.3955C19.3917 48.8407 19.1186 48.1309 18.9144 47.3111C18.7102 46.4912 18.5793 45.579 18.5299 44.632C18.4806 43.6851 18.5139 42.7239 18.6278 41.8093C18.5631 43.0381 18.638 44.2858 18.8444 45.4216C19.0509 46.5575 19.3814 47.5395 19.8013 48.2647Z" fill="#2F2E41"/>
<path id="Vector_17" d="M31.1977 48.2725C30.6937 46.1151 30.5008 45.2139 29.8509 43.902C29.2763 42.7418 28.5694 42.4011 27.9992 43.5004C27.3247 42.8036 26.5742 42.6457 25.8592 43.0499C25.1442 43.4542 24.5028 44.3991 24.0303 45.7443C23.5577 47.0896 23.2793 48.7634 23.2363 50.5171C23.1933 52.2708 23.3881 54.0109 23.7917 55.4788C24.1953 56.9468 24.7862 58.0644 25.4766 58.6655C26.167 59.2666 26.92 59.3192 27.6239 58.8156C28.3278 58.3119 28.945 57.2788 29.3838 55.8697C29.8225 54.4606 30.0595 52.7507 30.0594 50.994C30.0589 50.6855 30.0512 50.3773 30.0362 50.0709C30.5318 49.9045 30.7021 48.4389 31.1977 48.2725Z" fill="#2F2E41"/>
<path id="Vector_18" d="M119.951 99.9146C119.961 99.4385 120.014 98.9731 120.106 98.5512C120.199 98.1293 120.33 97.7612 120.488 97.4728C120.647 97.1844 120.83 96.9828 121.025 96.882C121.22 96.7813 121.422 96.7839 121.616 96.8898L123.42 90.8132L125.231 92.5329L122.634 101.029C122.538 101.798 122.328 102.456 122.042 102.878C121.757 103.301 121.416 103.458 121.086 103.321C120.755 103.184 120.457 102.761 120.248 102.133C120.039 101.505 119.933 100.716 119.951 99.9146Z" fill="#A0616A"/>
<path id="Vector_19" d="M121.93 94.6888L125.136 81.7952L123.83 73.4662L125.609 62.1221L125.675 62.1894C125.718 62.2335 126.729 63.312 126.878 67.1747L128.923 82.5386L123.466 99.4643L121.93 94.6888Z" fill="#3F3D56"/>
<path id="Vector_20" d="M104.515 47.288C104.713 47.3473 104.903 47.5095 105.072 47.7634C105.241 48.0172 105.384 48.3564 105.492 48.7571C105.6 49.1578 105.67 49.6102 105.697 50.0825C105.724 50.5548 105.707 51.0355 105.648 51.4907L108.042 56.2594L107.185 60.4453L103.843 53.5974C103.53 53.309 103.272 52.756 103.118 52.0431C102.964 51.3301 102.924 50.5068 103.007 49.7291C103.09 48.9513 103.289 48.2733 103.567 47.8234C103.845 47.3735 104.183 47.183 104.515 47.288Z" fill="#A0616A"/>
<path id="Vector_21" d="M106.54 52.408L111.669 61.0482L115.243 58.5781L119.836 63.6964L119.802 63.8476C119.781 63.9467 119.253 66.2732 117.631 66.3317L111.066 70.0177L104.43 55.7013L106.54 52.408Z" fill="#3F3D56"/>
<path id="Vector_22" d="M115.924 157.477H114.141L113.293 141.034L115.924 141.034L115.924 157.477Z" fill="#A0616A"/>
<path id="Vector_23" d="M112.868 156.259H116.307V161.435H110.703C110.703 160.755 110.759 160.082 110.868 159.454C110.977 158.826 111.136 158.255 111.337 157.775C111.538 157.294 111.777 156.913 112.04 156.653C112.302 156.392 112.584 156.259 112.868 156.259Z" fill="#2F2E41"/>
<path id="Vector_24" d="M123.053 157.477H121.27L120.422 141.034L123.053 141.034L123.053 157.477Z" fill="#A0616A"/>
<path id="Vector_25" d="M119.993 156.259H123.432V161.435H117.828C117.828 160.755 117.884 160.082 117.993 159.454C118.102 158.826 118.261 158.255 118.462 157.775C118.663 157.294 118.902 156.913 119.165 156.653C119.427 156.392 119.709 156.259 119.993 156.259Z" fill="#2F2E41"/>
<path id="Vector_26" d="M123.684 97.4587L123.539 121.799L123.393 153.789L120.194 153.093L118.594 108.933L116.558 153.093H113.255L112.922 108.585L114.085 98.8493L123.684 97.4587Z" fill="#2F2E41"/>
<path id="Vector_27" d="M113.769 98.9982L113.281 98.9477L115.545 69.1277L114.618 60.1145C114.57 59.6456 114.596 59.1507 114.69 58.7236C114.784 58.2965 114.941 57.9669 115.13 57.7973L116.797 56.3019L117.387 52.4275L122.036 53.6253L122.15 56.6533C122.654 57.0396 126.803 60.343 126.516 64.107C126.234 67.8222 124.566 79.5108 124.481 80.1032L124.189 96.8661L124.153 96.909C124.11 96.9608 120.905 100.728 117.424 100.727C116.168 100.778 114.922 100.188 113.769 98.9982Z" fill="#3F3D56"/>
<path id="Vector_28" d="M119.527 50.5101C121.376 50.5101 122.874 46.9269 122.874 42.5067C122.874 38.0866 121.376 34.5034 119.527 34.5034C117.678 34.5034 116.18 38.0866 116.18 42.5067C116.18 46.9269 117.678 50.5101 119.527 50.5101Z" fill="#A0616A"/>
<path id="Vector_29" d="M122.241 50.2541C121.604 51.8788 120.419 51.0066 120.336 48.787C120.329 48.6147 120.33 48.4412 120.337 48.2691C120.38 47.286 120.618 46.3933 120.561 45.3552C120.548 45.0969 120.508 44.8507 120.444 44.6399C119.935 43.0124 118.742 45.3679 118.262 43.8945C117.968 42.991 118.314 41.5686 118.088 40.5589C117.79 39.2262 116.908 39.8836 116.354 39.1537C115.738 38.3417 115.775 36.0829 116.181 34.7089C116.675 33.0333 117.542 32.1392 118.398 32.0104C119.254 31.8815 120.104 32.4347 120.903 33.1793C121.811 34.0252 122.711 35.1944 123.27 37.1031C123.949 39.4243 124.014 42.545 123.675 45.2592C123.468 46.9103 122.762 48.9273 122.241 50.2541Z" fill="#2F2E41"/>
<path id="Vector_30" d="M85.9729 155.266L86.4702 152.207L81.7731 146.166L81.0391 150.679L85.9729 155.266Z" fill="#FFB8B8"/>
<path id="Vector_31" d="M88.6382 147.287C88.4274 147.091 88.2025 146.996 87.9763 147.008C87.7502 147.02 87.5272 147.138 87.3201 147.356C87.1131 147.574 86.926 147.887 86.7697 148.278C86.6133 148.669 86.4907 149.129 86.4088 149.633L86.0733 151.695L85.5561 154.877L85.4297 155.658L87.0871 157.199L88.6903 147.337L88.6382 147.287Z" fill="#2F2E41"/>
<path id="Vector_32" d="M85.5539 149.38L85.3377 150.751L84.7979 154.174L84.7849 154.259C83.4097 154.682 81.9021 153.854 80.5077 152.567C79.9498 152.053 79.4034 151.47 78.8706 150.82C78.0821 149.868 77.376 148.862 76.8127 148.002C75.9647 146.701 75.4403 145.724 75.4403 145.724C75.4403 145.724 75.3017 146.023 75.051 146.537C74.715 147.224 74.1781 148.297 73.4981 149.561C73.2386 150.046 72.9601 150.554 72.6624 151.084C70.4682 154.975 67.6523 144.592 67.6523 144.592C67.6523 144.592 68.4443 143.386 68.6512 143.152C69.3174 142.399 70.8825 140.62 72.2327 139.04C72.9284 138.225 73.5662 137.46 73.9944 136.917C75.5108 134.987 77.3957 138.639 77.3957 138.639L85.5539 149.38Z" fill="#2F2E41"/>
<path id="Vector_33" opacity="0.14" d="M85.5539 149.38L85.3377 150.751L84.7979 154.174L84.7849 154.259C83.4097 154.682 81.9021 153.854 80.5077 152.567C79.9498 152.053 79.4034 151.47 78.8706 150.82C78.0821 149.868 77.376 148.862 76.8127 148.002C75.9647 146.701 75.4403 145.724 75.4403 145.724C75.4403 145.724 75.3017 146.023 75.051 146.537C74.715 147.224 74.1781 148.297 73.4981 149.561C73.2386 150.046 72.9601 150.554 72.6624 151.084C70.4682 154.975 67.6523 144.592 67.6523 144.592C67.6523 144.592 68.4443 143.386 68.6512 143.152C69.3174 142.399 70.8825 140.62 72.2327 139.04C72.9284 138.225 73.5662 137.46 73.9944 136.917C75.5108 134.987 77.3957 138.639 77.3957 138.639L85.5539 149.38Z" fill="black"/>
<path id="Vector_34" d="M63.6058 120.594H57.1131C56.9796 120.594 56.8515 120.467 56.7571 120.241C56.6627 120.015 56.6095 119.709 56.6094 119.39V112.698C56.6094 110.32 57.0045 108.04 57.7078 106.358C58.411 104.677 59.3649 103.732 60.3595 103.732C61.3541 103.732 62.3079 104.677 63.0112 106.358C63.7145 108.04 64.1096 110.32 64.1096 112.698V119.39C64.1094 119.709 64.0563 120.015 63.9619 120.241C63.8674 120.467 63.7394 120.594 63.6058 120.594Z" fill="#2F2E41"/>
<path id="Vector_35" d="M69.7808 128.999C69.6297 129.062 69.4862 129.204 69.3605 129.414C69.2347 129.625 69.1298 129.899 69.0531 130.216C68.9765 130.534 68.9299 130.888 68.9166 131.254C68.9033 131.619 68.9238 131.987 68.9765 132.332L67.2109 136.214L67.936 139.355L70.3971 133.789C70.6334 133.539 70.8231 133.09 70.9303 132.528C71.0375 131.966 71.0548 131.33 70.9788 130.739C70.9028 130.149 70.7389 129.645 70.5181 129.325C70.2973 129.004 70.035 128.888 69.7808 128.999Z" fill="#FFB8B8"/>
<path id="Vector_36" d="M64.4693 146.65C64.3896 146.65 64.3097 146.642 64.2297 146.626C63.7535 146.531 63.2951 146.148 62.8977 145.513C62.5002 144.879 62.1767 144.013 61.9575 142.998L59.129 129.981C58.9437 129.128 58.903 128.137 59.0155 127.215C59.1279 126.292 59.3848 125.508 59.7328 125.027C60.0807 124.546 60.4928 124.403 60.8835 124.63C61.2741 124.857 61.6132 125.435 61.8302 126.244L64.4397 140.243L67.9904 133.345L70.0464 135.258L66.5743 144.423C66.3074 145.123 65.9824 145.683 65.62 146.067C65.2575 146.45 64.8657 146.649 64.4693 146.65Z" fill="#EC2227"/>
<path id="Vector_37" d="M85.5765 159.567L86.1705 156.609L81.6815 149.723L80.8047 154.088L85.5765 159.567Z" fill="#FFB8B8"/>
<path id="Vector_38" d="M88.4875 152.102C88.2837 151.867 88.0625 151.731 87.8366 151.702C87.6107 151.672 87.3846 151.749 87.1712 151.928C86.9577 152.107 86.7612 152.385 86.5927 152.746C86.4242 153.107 86.2872 153.544 86.1893 154.031L85.7886 156.025L85.1707 159.103L85.0195 159.858L86.6225 161.7L88.5379 152.161L88.4875 152.102Z" fill="#2F2E41"/>
<path id="Vector_39" d="M85.3505 153.622L85.0908 154.949L84.4427 158.263L84.427 158.346C83.0423 158.515 81.5657 157.412 80.2168 155.873C79.6771 155.257 79.151 154.576 78.6407 153.831C77.885 152.736 77.2134 151.604 76.6794 150.643C75.8757 149.19 75.3842 148.119 75.3842 148.119C75.3842 148.119 75.2365 148.392 74.97 148.858C74.6129 149.481 74.0431 150.453 73.3245 151.588C73.0502 152.024 72.7562 152.479 72.4424 152.953C70.1296 156.43 66.8407 160.664 64.0432 161.558C59.13 163.129 60.2864 147.453 60.2864 147.453L64.1966 142.598L65.8567 143.403L67.7049 144.297L68.3598 144.616C68.3598 144.616 68.484 144.503 68.6978 144.308C69.3863 143.679 71.0039 142.193 72.4009 140.866C73.1207 140.181 73.7812 139.536 74.2256 139.073C75.7995 137.427 77.5615 141.415 77.5615 141.415L85.3505 153.622Z" fill="#2F2E41"/>
<path id="Vector_40" d="M53.1301 161.932C53.2797 161.85 53.4199 161.69 53.5409 161.465C53.6619 161.239 53.7607 160.953 53.8304 160.626C53.9002 160.299 53.9391 159.94 53.9444 159.573C53.9497 159.206 53.9214 158.841 53.8613 158.504L55.5405 154.408L54.7484 151.361L52.4111 157.225C52.1805 157.503 52.0007 157.975 51.9058 158.549C51.8109 159.124 51.8074 159.762 51.8961 160.342C51.9847 160.922 52.1593 161.404 52.3867 161.698C52.6142 161.991 52.8786 162.074 53.1301 161.932Z" fill="#FFB8B8"/>
<path id="Vector_41" d="M61.282 120.893C62.7278 120.893 63.8999 118.09 63.8999 114.634C63.8999 111.177 62.7278 108.374 61.282 108.374C59.8362 108.374 58.6641 111.177 58.6641 114.634C58.6641 118.09 59.8362 120.893 61.282 120.893Z" fill="#FFB8B8"/>
<path id="Vector_42" d="M57.875 132.008L60.1555 147.467L60.1418 147.521C59.8246 148.774 59.7209 149.786 59.842 150.445C59.8739 150.613 59.9207 150.762 59.979 150.882C60.0373 151.003 60.1059 151.091 60.1799 151.142L65.5766 142.123L65.3876 138.509L65.3982 138.468C65.9198 136.473 66.0887 134.666 65.9002 133.097C65.7295 131.828 65.3609 130.765 64.8709 130.129L64.8521 130.093L62.1604 122.261L58.5623 123.789L57.875 132.008Z" fill="#EC2227"/>
<path id="Vector_43" d="M54.4067 159.141L52.8789 154.646L56.5618 140.11L58.2788 127.42C58.3726 126.727 58.5275 126.09 58.733 125.552C58.9385 125.014 59.1898 124.587 59.4701 124.301C59.7504 124.015 60.053 123.876 60.3577 123.893C60.6623 123.91 60.9619 124.083 61.2362 124.4C61.5106 124.718 61.7532 125.172 61.9479 125.733C62.1426 126.293 62.2847 126.947 62.3647 127.65C62.4448 128.353 62.4608 129.089 62.4119 129.808C62.3629 130.527 62.25 131.213 62.0808 131.819L58.9285 143.111L54.4067 159.141Z" fill="#EC2227"/>
<path id="Vector_44" d="M65.0005 113.368H61.0304L60.9897 112.005L60.7861 113.368H60.1748L60.0941 110.667L59.6907 113.368H58.5078V113.234C58.5087 111.353 58.8215 109.551 59.3776 108.221C59.9338 106.891 60.6878 106.143 61.4743 106.141H62.034C62.8205 106.143 63.5745 106.891 64.1307 108.221C64.6868 109.551 64.9996 111.353 65.0005 113.234V113.368Z" fill="#2F2E41"/>
<path id="Vector_45" d="M60.9963 121.843C60.9664 121.843 60.9365 121.837 60.9071 121.824L58 120.598V109.111H61.2002L61.1209 109.331C60.0186 112.405 60.8491 117.389 61.4422 120.087C61.4859 120.284 61.5054 120.507 61.4985 120.73C61.4915 120.953 61.4583 121.167 61.4028 121.347C61.3563 121.5 61.2952 121.625 61.2245 121.712C61.1538 121.798 61.0756 121.843 60.9963 121.843Z" fill="#2F2E41"/>
<path id="Vector_46" d="M104.427 101.263V117.446H74.4421L70.1122 129.867L70.6067 117.446H68.5V101.263H104.427Z" fill="#F0F0F0"/>
<path id="Vector_47" d="M80.9689 112.262C81.6464 112.262 82.1956 110.948 82.1956 109.329C82.1956 107.709 81.6464 106.396 80.9689 106.396C80.2914 106.396 79.7422 107.709 79.7422 109.329C79.7422 110.948 80.2914 112.262 80.9689 112.262Z" fill="white"/>
<path id="Vector_48" d="M76.8283 112.262C77.5058 112.262 78.055 110.948 78.055 109.329C78.055 107.709 77.5058 106.396 76.8283 106.396C76.1508 106.396 75.6016 107.709 75.6016 109.329C75.6016 110.948 76.1508 112.262 76.8283 112.262Z" fill="white"/>
<path id="Vector_49" d="M72.6877 112.262C73.3652 112.262 73.9144 110.948 73.9144 109.329C73.9144 107.709 73.3652 106.396 72.6877 106.396C72.0102 106.396 71.4609 107.709 71.4609 109.329C71.4609 110.948 72.0102 112.262 72.6877 112.262Z" fill="white"/>
<path id="Vector_50" d="M139.847 161.756H0.153341C0.112672 161.756 0.0736693 161.717 0.0449123 161.649C0.0161554 161.58 0 161.487 0 161.389C0 161.292 0.0161554 161.199 0.0449123 161.13C0.0736693 161.061 0.112672 161.023 0.153341 161.023H139.847C139.887 161.023 139.926 161.061 139.955 161.13C139.984 161.199 140 161.292 140 161.389C140 161.487 139.984 161.58 139.955 161.649C139.926 161.717 139.887 161.756 139.847 161.756Z" fill="#CACACA"/>
</g>
<defs>
<clipPath id="clip0_1140_377">
<rect width="140" height="162" fill="white"/>
</clipPath>
</defs>
</svg>
