<svg width="138" height="149" viewBox="0 0 138 149" fill="none" xmlns="http://www.w3.org/2000/svg">
<g id="undraw_online_cv_re_gn0a 1" clip-path="url(#clip0_1140_471)">
<path id="Vector" d="M83.2641 137.865C85.2619 139.638 87.5382 148.601 87.5382 148.601C87.5382 148.601 80.4128 149.216 78.4155 147.444C77.9404 147.022 77.5325 146.481 77.2153 145.851C76.8981 145.221 76.6778 144.514 76.567 143.771C76.4561 143.028 76.4569 142.263 76.5692 141.521C76.6816 140.778 76.9033 140.072 77.2217 139.443C77.5402 138.814 77.9491 138.274 78.4251 137.854C78.9012 137.435 79.435 137.143 79.9961 136.997C80.5572 136.85 81.1347 136.851 81.6954 137C82.2561 137.15 82.7892 137.443 83.2641 137.865Z" fill="#F1F1F1"/>
<path id="Vector_2" d="M87.6199 148.533L87.5083 148.651C83.4365 141.887 77.2921 139.551 77.2305 139.528L77.2689 139.346C77.3309 139.369 83.5185 141.72 87.6199 148.533Z" fill="white"/>
<path id="Vector_3" d="M93.9476 134.29C93.8202 138.694 87.4974 148.752 87.4974 148.752C87.4974 148.752 81.7774 138.08 81.9044 133.678C81.9657 131.563 82.659 129.567 83.8316 128.129C85.0042 126.691 86.5602 125.929 88.1572 126.01C89.7542 126.091 91.2615 127.009 92.3474 128.562C93.4333 130.115 94.0089 132.175 93.9476 134.29Z" fill="#F1F1F1"/>
<path id="Vector_4" d="M87.6195 148.83L87.4336 148.741C90.4969 137.477 88.1154 126.193 88.091 126.081L88.2809 126.009C88.3055 126.122 90.705 137.484 87.6195 148.83Z" fill="white"/>
<path id="Vector_5" d="M71.2453 109.229H17.0555C16.09 109.228 15.1645 108.719 14.4818 107.815C13.7992 106.911 13.4152 105.686 13.4141 104.407V22.4004C13.4152 21.122 13.7992 19.8963 14.4818 18.9923C15.1645 18.0883 16.09 17.5798 17.0555 17.5784H71.2453C72.2107 17.5798 73.1363 18.0883 73.819 18.9923C74.5016 19.8963 74.8856 21.122 74.8867 22.4004V104.407C74.8856 105.686 74.5016 106.911 73.819 107.815C73.1363 108.719 72.2107 109.228 71.2453 109.229Z" fill="#E6E6E6"/>
<path id="Vector_6" d="M68.7142 105.21H19.5886C18.7315 105.209 17.9096 104.757 17.3035 103.955C16.6974 103.152 16.3564 102.064 16.3555 100.929V25.8786C16.3564 24.7435 16.6974 23.6552 17.3035 22.8526C17.9096 22.05 18.7315 21.5985 19.5886 21.5972H68.7142C69.5714 21.5985 70.3932 22.0499 70.9993 22.8526C71.6054 23.6552 71.9464 24.7435 71.9473 25.8786V100.929C71.9464 102.064 71.6054 103.152 70.9993 103.955C70.3932 104.757 69.5714 105.209 68.7142 105.21Z" fill="white"/>
<path id="Vector_7" d="M66.7597 32.279H41.9774C41.8711 32.2792 41.7659 32.2517 41.6677 32.198C41.5695 32.1443 41.4803 32.0655 41.4051 31.9661C41.3299 31.8667 41.2703 31.7486 41.2296 31.6186C41.1889 31.4887 41.168 31.3494 41.168 31.2087C41.168 31.068 41.1889 30.9287 41.2296 30.7988C41.2703 30.6688 41.3299 30.5508 41.4051 30.4514C41.4803 30.352 41.5695 30.2732 41.6677 30.2195C41.7659 30.1658 41.8711 30.1382 41.9774 30.1384H66.7597C66.866 30.1382 66.9712 30.1658 67.0694 30.2195C67.1676 30.2732 67.2568 30.352 67.332 30.4514C67.4072 30.5508 67.4668 30.6688 67.5075 30.7988C67.5482 30.9287 67.5691 31.068 67.5691 31.2087C67.5691 31.3494 67.5482 31.4887 67.5075 31.6186C67.4668 31.7486 67.4072 31.8667 67.332 31.9661C67.2568 32.0655 67.1676 32.1443 67.0694 32.198C66.9712 32.2517 66.866 32.2792 66.7597 32.279Z" fill="#E4E4E4"/>
<path id="Vector_8" d="M66.7586 36.5081H41.9762C41.7619 36.5081 41.5563 36.3953 41.4047 36.1946C41.2531 35.9939 41.168 35.7216 41.168 35.4378C41.168 35.1539 41.2531 34.8817 41.4047 34.6809C41.5563 34.4802 41.7619 34.3674 41.9762 34.3674H66.7586C66.973 34.3674 67.1786 34.4802 67.3302 34.6809C67.4817 34.8817 67.5669 35.1539 67.5669 35.4378C67.5669 35.7216 67.4817 35.9939 67.3302 36.1946C67.1786 36.3953 66.973 36.5081 66.7586 36.5081Z" fill="#E4E4E4"/>
<path id="Vector_9" d="M52.7188 40.7374H41.9762C41.7619 40.7374 41.5563 40.6246 41.4047 40.4239C41.2531 40.2231 41.168 39.9509 41.168 39.667C41.168 39.3831 41.2531 39.1109 41.4047 38.9102C41.5563 38.7094 41.7619 38.5967 41.9762 38.5967H52.7188C52.9332 38.5967 53.1388 38.7094 53.2903 38.9102C53.4419 39.1109 53.5271 39.3831 53.5271 39.667C53.5271 39.9509 53.4419 40.2231 53.2903 40.4239C53.1388 40.6246 52.9332 40.7374 52.7188 40.7374Z" fill="#E4E4E4"/>
<path id="Vector_10" d="M63.7729 57.8185H24.6492C24.543 57.8187 24.4378 57.7912 24.3396 57.7375C24.2414 57.6838 24.1522 57.605 24.077 57.5056C24.0018 57.4062 23.9422 57.2881 23.9015 57.1582C23.8608 57.0282 23.8398 56.8889 23.8398 56.7483C23.8398 56.6076 23.8608 56.4683 23.9015 56.3383C23.9422 56.2084 24.0018 56.0903 24.077 55.9909C24.1522 55.8915 24.2414 55.8127 24.3396 55.759C24.4378 55.7053 24.543 55.6778 24.6492 55.678H63.7729C63.8792 55.6778 63.9844 55.7053 64.0826 55.759C64.1808 55.8127 64.27 55.8915 64.3452 55.9909C64.4203 56.0903 64.48 56.2084 64.5207 56.3383C64.5614 56.4683 64.5823 56.6076 64.5823 56.7483C64.5823 56.8889 64.5614 57.0282 64.5207 57.1582C64.48 57.2881 64.4203 57.4062 64.3452 57.5056C64.27 57.605 64.1808 57.6838 64.0826 57.7375C63.9844 57.7912 63.8792 57.8187 63.7729 57.8185Z" fill="#E4E4E4"/>
<path id="Vector_11" d="M63.7718 62.0479H24.6481C24.4338 62.0479 24.2282 61.9351 24.0766 61.7344C23.925 61.5337 23.8398 61.2614 23.8398 60.9776C23.8398 60.6937 23.925 60.4214 24.0766 60.2207C24.2282 60.02 24.4338 59.9072 24.6481 59.9072H63.7718C63.9862 59.9072 64.1918 60.02 64.3433 60.2207C64.4949 60.4214 64.5801 60.6937 64.5801 60.9776C64.5801 61.2614 64.4949 61.5337 64.3433 61.7344C64.1918 61.9351 63.9862 62.0479 63.7718 62.0479Z" fill="#E4E4E4"/>
<path id="Vector_12" d="M63.7718 71.6479H24.6481C24.4337 71.6479 24.2281 71.5351 24.0766 71.3344C23.925 71.1337 23.8398 70.8615 23.8398 70.5776C23.8398 70.2938 23.925 70.0215 24.0766 69.8208C24.2281 69.6201 24.4337 69.5073 24.6481 69.5073H63.7718C63.9861 69.5073 64.1917 69.6201 64.3433 69.8208C64.4948 70.0215 64.58 70.2938 64.58 70.5776C64.58 70.8615 64.4948 71.1337 64.3433 71.3344C64.1917 71.5351 63.9861 71.6479 63.7718 71.6479Z" fill="#E4E4E4"/>
<path id="Vector_13" d="M63.7718 75.8772H24.6481C24.4338 75.8772 24.2282 75.7645 24.0766 75.5637C23.925 75.363 23.8398 75.0908 23.8398 74.8069C23.8398 74.523 23.925 74.2508 24.0766 74.0501C24.2282 73.8493 24.4338 73.7366 24.6481 73.7366H63.7718C63.9862 73.7366 64.1918 73.8493 64.3433 74.0501C64.4949 74.2508 64.5801 74.523 64.5801 74.8069C64.5801 75.0908 64.4949 75.363 64.3433 75.5637C64.1918 75.7645 63.9862 75.8772 63.7718 75.8772Z" fill="#E4E4E4"/>
<path id="Vector_14" d="M63.7718 85.4775H24.6481C24.4337 85.4775 24.2281 85.3647 24.0766 85.164C23.925 84.9633 23.8398 84.6911 23.8398 84.4072C23.8398 84.1233 23.925 83.8511 24.0766 83.6504C24.2281 83.4497 24.4337 83.3369 24.6481 83.3369H63.7718C63.9861 83.3369 64.1917 83.4497 64.3433 83.6504C64.4948 83.8511 64.58 84.1233 64.58 84.4072C64.58 84.6911 64.4948 84.9633 64.3433 85.164C64.1917 85.3647 63.9861 85.4775 63.7718 85.4775Z" fill="#E4E4E4"/>
<path id="Vector_15" d="M63.7718 89.7066H24.6481C24.4338 89.7066 24.2282 89.5938 24.0766 89.3931C23.925 89.1924 23.8398 88.9201 23.8398 88.6363C23.8398 88.3524 23.925 88.0801 24.0766 87.8794C24.2282 87.6787 24.4338 87.5659 24.6481 87.5659H63.7718C63.9862 87.5659 64.1918 87.6787 64.3433 87.8794C64.4949 88.0801 64.5801 88.3524 64.5801 88.6363C64.5801 88.9201 64.4949 89.1924 64.3433 89.3931C64.1918 89.5938 63.9862 89.7066 63.7718 89.7066Z" fill="#E4E4E4"/>
<path id="Vector_16" d="M63.7657 101.421H53.0231C52.8088 101.421 52.6032 101.309 52.4516 101.108C52.3 100.907 52.2148 100.635 52.2148 100.351C52.2148 100.067 52.3 99.795 52.4516 99.5943C52.6032 99.3935 52.8088 99.2808 53.0231 99.2808H63.7657C63.9801 99.2808 64.1856 99.3935 64.3372 99.5943C64.4888 99.795 64.574 100.067 64.574 100.351C64.574 100.635 64.4888 100.907 64.3372 101.108C64.1856 101.309 63.9801 101.421 63.7657 101.421Z" fill="#EC2227"/>
<path id="Vector_17" d="M35.1152 35.5632C35.1174 37.8618 34.5298 40.0931 33.4486 41.8914C33.099 42.4767 32.7008 43.0083 32.2618 43.4762C31.0635 44.7634 29.5994 45.541 28.0616 45.7071C27.8522 45.7311 27.6412 45.742 27.4285 45.742C27.0071 45.7421 26.5864 45.6961 26.1708 45.6045C26.0241 45.5739 25.8807 45.5368 25.7373 45.4932C25.4876 45.4196 25.2411 45.3285 24.9988 45.2203C24.2128 44.8739 23.4746 44.3608 22.8129 43.701C22.6366 43.5264 22.4668 43.3409 22.302 43.1444C22.1004 42.9076 21.9094 42.6554 21.7299 42.3891C21.6821 42.3193 21.6343 42.2472 21.5882 42.1752C20.7839 40.9286 20.2189 39.4431 19.9415 37.8451C19.664 36.2471 19.6823 34.584 19.9947 32.9974C20.3072 31.4108 20.9045 29.9476 21.7358 28.7325C22.5672 27.5174 23.608 26.5863 24.7696 26.0185C25.9312 25.4507 27.1792 25.263 28.4074 25.4715C29.6356 25.6799 30.8075 26.2782 31.8235 27.2155C32.8394 28.1528 33.6693 29.4014 34.2424 30.8548C34.8156 32.3083 35.115 33.9236 35.1152 35.5632Z" fill="#E4E4E4"/>
<path id="Vector_18" d="M27.1617 39.0368C28.9014 39.0368 30.3116 37.1693 30.3116 34.8656C30.3116 32.5619 28.9014 30.6943 27.1617 30.6943C25.422 30.6943 24.0117 32.5619 24.0117 34.8656C24.0117 37.1693 25.422 39.0368 27.1617 39.0368Z" fill="#9E616A"/>
<path id="Vector_19" d="M30.6675 32.8323C30.6818 32.4596 30.6024 32.0911 30.4417 31.7845L30.3279 31.5706C29.9174 30.5228 29.24 29.5798 28.7438 28.89C28.3712 28.3727 27.9987 28.1238 27.641 28.1478C27.3806 28.1724 27.1382 28.3325 26.9668 28.5931C26.4957 28.555 26.0264 28.6998 25.6165 29.0095C25.2066 29.3193 24.8738 29.7808 24.659 30.3373C23.1507 31.3916 23.6007 34.5044 23.6056 34.5371L23.97 35.347L24.0112 35.2444C24.0112 35.2422 24.0161 35.2335 24.0227 35.216C24.0936 35.0479 24.4793 34.1136 24.7398 33.5221C24.8349 33.3203 24.9613 33.1477 25.1107 33.0156C25.3546 32.7949 25.635 32.6549 25.9283 32.6075L26.7294 32.4699L26.4261 33.0724H28.6086L29.4476 32.9414C29.5317 33.3977 30.1977 35.168 30.2784 35.3819L30.285 35.3994L30.3295 35.5194L30.5785 34.6135C30.7238 34.0399 30.7545 33.4263 30.6675 32.8323Z" fill="#2F2E41"/>
<path id="Vector_20" d="M22.8395 43.7228C22.9747 43.4871 23.6752 42.3869 25.2874 41.8041L26.1413 40.5446L29.5651 39.822L31.3074 41.0968L33.452 41.8914C33.1024 42.4767 32.7043 43.0083 32.2652 43.4762C31.0669 44.7634 29.6028 45.541 28.065 45.7071C27.8556 45.7311 27.6446 45.742 27.432 45.742C27.0106 45.7421 26.5899 45.6961 26.1742 45.6045C26.0275 45.5739 25.8841 45.5368 25.7407 45.4931C25.4911 45.4196 25.2446 45.3285 25.0022 45.2203C24.2252 44.8784 23.4949 44.3728 22.8395 43.7228C22.8312 43.7163 22.8246 43.7076 22.8164 43.701L22.8395 43.7228Z" fill="#EC2227"/>
<path id="Vector_21" d="M87.813 5.10546H0.48913C0.359448 5.10528 0.235118 5.03697 0.14342 4.91554C0.0517209 4.79411 0.000141371 4.62948 0 4.45775V0.647714C0.000141371 0.475987 0.0517209 0.311347 0.14342 0.189918C0.235118 0.0684883 0.359448 0.000187206 0.48913 0H87.813C87.9427 0.000187206 88.067 0.0684883 88.1587 0.189918C88.2504 0.311347 88.302 0.475987 88.3021 0.647714V4.45775C88.302 4.62948 88.2504 4.79411 88.1587 4.91554C88.067 5.03697 87.9427 5.10528 87.813 5.10546Z" fill="#EC2227"/>
<path id="Ellipse 90" d="M2.83897 3.28645C3.2225 3.28645 3.53341 2.87474 3.53341 2.36686C3.53341 1.85898 3.2225 1.44727 2.83897 1.44727C2.45544 1.44727 2.14453 1.85898 2.14453 2.36686C2.14453 2.87474 2.45544 3.28645 2.83897 3.28645Z" fill="white"/>
<path id="Ellipse 91" d="M5.47569 3.28645C5.85922 3.28645 6.17013 2.87474 6.17013 2.36686C6.17013 1.85898 5.85922 1.44727 5.47569 1.44727C5.09216 1.44727 4.78125 1.85898 4.78125 2.36686C4.78125 2.87474 5.09216 3.28645 5.47569 3.28645Z" fill="white"/>
<path id="Ellipse 92" d="M8.11241 3.28645C8.49594 3.28645 8.80685 2.87474 8.80685 2.36686C8.80685 1.85898 8.49594 1.44727 8.11241 1.44727C7.72888 1.44727 7.41797 1.85898 7.41797 2.36686C7.41797 2.87474 7.72888 3.28645 8.11241 3.28645Z" fill="white"/>
<path id="Vector_22" d="M85.2309 1.73391H82.1956C82.1363 1.73323 82.0796 1.70157 82.0378 1.64581C81.9961 1.59004 81.9727 1.5147 81.9727 1.43617C81.9727 1.35765 81.9961 1.2823 82.0378 1.22654C82.0796 1.17078 82.1363 1.13911 82.1956 1.13844H85.2309C85.2606 1.1381 85.29 1.14556 85.3175 1.16037C85.345 1.17518 85.37 1.19706 85.3911 1.22474C85.4122 1.25242 85.4289 1.28535 85.4403 1.32164C85.4518 1.35793 85.4576 1.39686 85.4576 1.43617C85.4576 1.47549 85.4518 1.51441 85.4403 1.5507C85.4289 1.58699 85.4122 1.61993 85.3911 1.64761C85.37 1.67529 85.345 1.69717 85.3175 1.71198C85.29 1.72679 85.2606 1.73424 85.2309 1.73391Z" fill="white"/>
<path id="Vector_23" d="M85.2289 2.85036H82.1936C82.134 2.85036 82.0768 2.81899 82.0346 2.76316C81.9924 2.70732 81.9688 2.63159 81.9688 2.55263C81.9688 2.47366 81.9924 2.39793 82.0346 2.3421C82.0768 2.28626 82.134 2.25489 82.1936 2.25489H85.2289C85.2586 2.25456 85.288 2.26201 85.3155 2.27682C85.343 2.29163 85.368 2.31351 85.3891 2.34119C85.4102 2.36887 85.4269 2.40181 85.4384 2.4381C85.4498 2.47439 85.4557 2.51331 85.4557 2.55263C85.4557 2.59194 85.4498 2.63087 85.4384 2.66716C85.4269 2.70345 85.4102 2.73638 85.3891 2.76406C85.368 2.79175 85.343 2.81362 85.3155 2.82843C85.288 2.84325 85.2586 2.8507 85.2289 2.85036Z" fill="white"/>
<path id="Vector_24" d="M85.231 3.96705H82.1957C82.1364 3.96641 82.0796 3.93476 82.0379 3.879C81.9961 3.82323 81.9727 3.74786 81.9727 3.66932C81.9727 3.59077 81.9961 3.5154 82.0379 3.45964C82.0796 3.40387 82.1364 3.37222 82.1957 3.37158H85.231C85.2903 3.37222 85.347 3.40387 85.3888 3.45964C85.4306 3.5154 85.454 3.59077 85.454 3.66932C85.454 3.74786 85.4306 3.82323 85.3888 3.879C85.347 3.93476 85.2903 3.96641 85.231 3.96705Z" fill="white"/>
<path id="Vector_25" d="M109.204 102.458C109.064 102.257 108.959 102.018 108.897 101.757C108.835 101.496 108.817 101.221 108.843 100.95C108.87 100.679 108.942 100.419 109.053 100.188C109.163 99.9576 109.311 99.7621 109.485 99.6153L108.328 93.1494L110.777 94.3344L111.501 100.293C111.668 100.697 111.717 101.167 111.639 101.616C111.561 102.065 111.362 102.46 111.079 102.727C110.796 102.994 110.448 103.114 110.103 103.064C109.757 103.015 109.437 102.799 109.204 102.458Z" fill="#9E616A"/>
<path id="Vector_26" d="M103.312 75.3628L104.295 78.71C104.295 78.71 103.874 82.0571 104.576 82.801C105.278 83.5448 104.998 83.5448 104.998 84.1026C105.022 84.5028 105.109 84.8917 105.254 85.2441C105.4 85.5965 105.599 85.9046 105.84 86.1481C106.402 86.706 108.929 98.0492 108.929 98.0492H111.457C111.375 97.1847 111.375 96.3102 111.457 95.4458C111.598 94.1441 111.036 90.797 110.755 90.2391C110.474 89.6812 110.755 88.9374 110.755 87.8217C110.755 86.706 110.193 86.1481 110.193 84.2886C110.193 82.429 108.508 67.9246 108.649 66.2511C108.789 64.5775 107.244 63.0898 107.244 63.0898H105.84L103.312 75.3628Z" fill="#E4E4E4"/>
<path id="Vector_27" d="M109.78 146.083H107.912L107.023 136.542L109.78 136.542L109.78 146.083Z" fill="#9E616A"/>
<path id="Vector_28" d="M110.254 148.481L104.23 148.481V148.38C104.231 147.557 104.478 146.767 104.917 146.185C105.357 145.603 105.953 145.276 106.575 145.276L107.675 144.17L109.728 145.276L110.254 145.276L110.254 148.481Z" fill="#2F2E41"/>
<path id="Vector_29" d="M92.6879 146.013L90.9336 145.163L92.5743 135.797L95.1636 137.052L92.6879 146.013Z" fill="#9E616A"/>
<path id="Vector_30" d="M92.5162 148.481L86.8594 145.741L86.8855 145.646C87.0992 144.873 87.536 144.244 88.1 143.897C88.664 143.55 89.3089 143.514 89.8928 143.797L91.213 143.26L92.8541 145.232L93.3479 145.471L92.5162 148.481Z" fill="#2F2E41"/>
<path id="Vector_31" d="M105.661 101.465C105.661 101.465 104.397 109.647 106.504 108.903C108.61 108.16 107.768 101.093 107.768 101.093L105.661 101.465Z" fill="#A0616A"/>
<path id="Vector_32" d="M96.3953 94.6777C96.3953 94.6777 94.7102 97.653 94.7102 99.3266C94.7102 101 94.1485 115.876 94.1485 115.876C94.1485 115.876 89.8849 138.029 90.7274 139.145C91.57 140.261 94.5189 141.376 94.9402 140.818C95.3614 140.261 99.0634 117.364 99.0634 117.364L102.574 104.905L105.804 122.757L106.085 141.724C106.085 141.724 109.595 142.84 110.297 142.096C110.999 141.352 111.14 123.315 110.297 116.992C109.455 110.67 110.438 96.1654 110.438 96.1654L96.3953 94.6777Z" fill="#2F2E41"/>
<path id="Vector_33" d="M102.025 54.9766C104.352 54.9766 106.238 52.4789 106.238 49.3979C106.238 46.317 104.352 43.8193 102.025 43.8193C99.6986 43.8193 97.8125 46.317 97.8125 49.3979C97.8125 52.4789 99.6986 54.9766 102.025 54.9766Z" fill="#9E616A"/>
<path id="Vector_34" d="M96.6773 63.0657C96.6773 63.0657 97.8903 60.6724 100.278 57.5112C101.541 56.9534 103.731 57.2785 104.49 57.5112C108.001 63.6477 108.222 63.2399 109.136 66.6686C109.373 67.5577 109.491 68.4119 109.386 69.1092C108.965 71.8985 110.299 94.4919 110.439 95.2357C110.579 95.9796 111.562 96.9093 110.579 96.9093C109.596 96.9093 94.7114 96.1655 94.9922 95.6076C95.273 95.0498 96.6773 63.0657 96.6773 63.0657Z" fill="#E4E4E4"/>
<path id="Vector_35" opacity="0.1" d="M96.0312 95.3623L100.255 83.0557L98.1432 96.144L96.0312 95.3623Z" fill="black"/>
<path id="Vector_36" d="M100.752 54.5662C101.146 54.1775 101.509 53.7361 101.835 53.249C102.163 52.7575 102.368 52.1442 102.422 51.4928C102.446 51.168 102.408 50.8405 102.311 50.5407C102.213 50.2409 102.06 49.9786 101.866 49.7782C101.464 49.4029 100.852 49.4247 100.519 49.903C100.68 49.2142 100.827 48.4018 100.501 47.8243C100.205 47.2986 99.6515 47.2093 99.1736 47.036C98.2519 46.6962 97.4589 45.9139 96.9492 44.8417L97.7608 45.0641L97.6703 44.2979L98.3429 44.6076L98.3487 43.5405L99.0429 44.0548C99.8927 43.0231 101.013 42.4706 102.165 42.5144C102.746 42.5272 103.316 42.7342 103.82 43.1162C104.326 43.5036 104.709 44.12 104.899 44.8518C105.256 44.3607 105.893 44.3987 106.319 44.7825C106.745 45.1663 106.995 45.8084 107.166 46.4513C107.506 47.6842 107.585 49.0167 107.395 50.3048C107.199 51.5959 106.674 52.7585 105.907 53.5973C105.203 54.309 104.365 54.7505 103.484 54.8738C102.607 54.9942 101.721 54.9441 100.855 54.7249" fill="#2F2E41"/>
<path id="Vector_37" d="M94.7173 102.434C94.857 102.233 94.9617 101.993 95.024 101.733C95.0863 101.472 95.1046 101.197 95.0778 100.926C95.0509 100.655 94.9795 100.395 94.8686 100.164C94.7577 99.9335 94.6099 99.7379 94.4358 99.5912L95.593 93.1252L93.1437 94.3102L92.4203 100.269C92.2535 100.672 92.2043 101.143 92.2821 101.592C92.36 102.04 92.5593 102.436 92.8425 102.702C93.1256 102.969 93.4729 103.09 93.8184 103.04C94.164 102.991 94.4838 102.775 94.7173 102.434Z" fill="#9E616A"/>
<path id="Vector_38" d="M98.0806 63.0657H96.6763C96.6763 63.0657 95.1316 64.5533 95.2721 66.2269C95.4125 67.9005 93.7274 82.4049 93.7274 84.2644C93.7274 86.1239 93.1657 86.6818 93.1657 87.7975C93.1657 88.9132 93.4465 89.6571 93.1657 90.2149C92.8848 90.7728 92.3231 94.12 92.4636 95.4216C92.5452 96.286 92.5452 97.1606 92.4636 98.025H94.9912C94.9912 98.025 97.5189 86.6818 98.0806 86.1239C98.3215 85.8804 98.5211 85.5724 98.6662 85.22C98.8114 84.8675 98.8989 84.4786 98.9231 84.0785C98.9231 83.5206 98.6423 83.5206 99.3444 82.7768C100.047 82.033 99.6252 78.6858 99.6252 78.6858L100.608 75.3386L98.0806 63.0657Z" fill="#E4E4E4"/>
<path id="Vector_39" d="M137.805 149H60.775C60.7491 149 60.7236 148.994 60.6997 148.98C60.6758 148.967 60.6541 148.948 60.6358 148.924C60.6175 148.9 60.603 148.871 60.5931 148.84C60.5832 148.808 60.5781 148.774 60.5781 148.74C60.5781 148.706 60.5832 148.672 60.5931 148.641C60.603 148.609 60.6175 148.58 60.6358 148.556C60.6541 148.532 60.6758 148.513 60.6997 148.5C60.7236 148.487 60.7491 148.48 60.775 148.48H137.805C137.831 148.48 137.856 148.487 137.88 148.5C137.904 148.513 137.926 148.532 137.944 148.556C137.962 148.58 137.977 148.609 137.987 148.641C137.997 148.672 138.002 148.706 138.002 148.74C138.002 148.774 137.997 148.808 137.987 148.84C137.977 148.871 137.962 148.9 137.944 148.924C137.926 148.948 137.904 148.967 137.88 148.98C137.856 148.994 137.831 149 137.805 149Z" fill="#CACACA"/>
</g>
<defs>
<clipPath id="clip0_1140_471">
<rect width="138" height="149" fill="white"/>
</clipPath>
</defs>
</svg>
